STARTFONT 2.1
FONT -FontForge-Tangerine-Book-R-Normal--28-280-72-72-P-104-ISO10646-1
SIZE 28 72 72
FONTBOUNDINGBOX 46 30 -9 -8
COMMENT "Generated by fontforge, http://fontforge.sourceforge.net"
COMMENT "Copyright (c) 2010 by Toshi Omagari. All rights reserved."
STARTPROPERTIES 39
FOUNDRY "FontForge"
FAMILY_NAME "Tangerine"
WEIGHT_NAME "Book"
SLANT "R"
SETWIDTH_NAME "Normal"
ADD_STYLE_NAME ""
PIXEL_SIZE 28
POINT_SIZE 280
RESOLUTION_X 72
RESOLUTION_Y 72
SPACING "P"
AVERAGE_WIDTH 104
CHARSET_REGISTRY "ISO10646"
CHARSET_ENCODING "1"
FONTNAME_REGISTRY ""
CHARSET_COLLECTIONS "ISO10646-1"
FONT_NAME "Tangerine-Regular"
FACE_NAME "Tangerine Regular"
COPYRIGHT "Copyright (c) 2010 by Toshi Omagari. All rights reserved."
FONT_VERSION "1.3"
FONT_ASCENT 21
FONT_DESCENT 7
UNDERLINE_POSITION -3
UNDERLINE_THICKNESS 2
X_HEIGHT 6
CAP_HEIGHT 17
RAW_ASCENT 750
RAW_DESCENT 250
NORM_SPACE 4
RELATIVE_WEIGHT 40
RELATIVE_SETWIDTH 50
SUPERSCRIPT_X 0
SUPERSCRIPT_Y 13
SUPERSCRIPT_SIZE 18
SUBSCRIPT_X 0
SUBSCRIPT_Y 3
SUBSCRIPT_SIZE 18
AVG_LOWERCASE_WIDTH 68
AVG_UPPERCASE_WIDTH 198
ENDPROPERTIES
CHARS 233
STARTCHAR space
ENCODING 32
SWIDTH 150 0
DWIDTH 4 0
BBX 1 1 0 0
BITMAP
00
ENDCHAR
STARTCHAR exclam
ENCODING 33
SWIDTH 189 0
DWIDTH 5 0
BBX 7 15 2 0
BITMAP
06
04
0C
08
08
10
10
20
20
40
40
00
00
80
80
ENDCHAR
STARTCHAR quotedbl
ENCODING 34
SWIDTH 214 0
DWIDTH 6 0
BBX 7 3 1 8
BITMAP
22
44
88
ENDCHAR
STARTCHAR numbersign
ENCODING 35
SWIDTH 289 0
DWIDTH 8 0
BBX 9 9 0 0
BITMAP
0900
1200
7F80
2400
2400
FE00
6800
5000
9000
ENDCHAR
STARTCHAR dollar
ENCODING 36
SWIDTH 269 0
DWIDTH 8 0
BBX 7 13 0 -2
BITMAP
02
04
0E
12
1C
18
08
0C
F4
A4
E8
50
40
ENDCHAR
STARTCHAR percent
ENCODING 37
SWIDTH 388 0
DWIDTH 11 0
BBX 9 13 1 -2
BITMAP
0080
0080
7100
9200
9400
A400
AB80
5480
2480
2480
4700
8000
8000
ENDCHAR
STARTCHAR ampersand
ENCODING 38
SWIDTH 507 0
DWIDTH 14 0
BBX 13 13 1 0
BITMAP
0E00
1200
1200
1400
1400
1800
3030
48C8
8900
8500
8600
C310
7DE0
ENDCHAR
STARTCHAR quotesingle
ENCODING 39
SWIDTH 120 0
DWIDTH 3 0
BBX 4 4 1 7
BITMAP
30
20
40
80
ENDCHAR
STARTCHAR parenleft
ENCODING 40
SWIDTH 250 0
DWIDTH 7 0
BBX 6 21 3 -3
BITMAP
04
08
10
10
20
20
40
40
40
80
80
80
80
80
80
80
80
80
80
80
80
ENDCHAR
STARTCHAR parenright
ENCODING 41
SWIDTH 276 0
DWIDTH 8 0
BBX 6 21 1 -3
BITMAP
04
04
04
04
04
04
04
04
04
04
04
04
08
08
08
10
10
20
40
40
80
ENDCHAR
STARTCHAR asterisk
ENCODING 42
SWIDTH 188 0
DWIDTH 5 0
BBX 4 5 1 6
BITMAP
20
50
E0
A0
A0
ENDCHAR
STARTCHAR plus
ENCODING 43
SWIDTH 301 0
DWIDTH 8 0
BBX 7 7 1 1
BITMAP
08
08
10
FE
20
20
20
ENDCHAR
STARTCHAR comma
ENCODING 44
SWIDTH 112 0
DWIDTH 3 0
BBX 2 4 0 -2
BITMAP
40
40
40
80
ENDCHAR
STARTCHAR hyphen
ENCODING 45
SWIDTH 245 0
DWIDTH 7 0
BBX 5 1 1 4
BITMAP
F8
ENDCHAR
STARTCHAR period
ENCODING 46
SWIDTH 112 0
DWIDTH 3 0
BBX 1 2 1 0
BITMAP
80
80
ENDCHAR
STARTCHAR slash
ENCODING 47
SWIDTH 210 0
DWIDTH 6 0
BBX 12 19 -1 -1
BITMAP
0010
0020
0040
0040
0080
0080
0100
0200
0200
0400
0400
0800
0800
1000
2000
2000
4000
4000
8000
ENDCHAR
STARTCHAR zero
ENCODING 48
SWIDTH 349 0
DWIDTH 10 0
BBX 7 9 2 0
BITMAP
1C
26
42
82
82
84
84
C8
70
ENDCHAR
STARTCHAR one
ENCODING 49
SWIDTH 189 0
DWIDTH 5 0
BBX 6 9 1 0
BITMAP
0C
F8
10
20
20
40
40
80
80
ENDCHAR
STARTCHAR two
ENCODING 50
SWIDTH 277 0
DWIDTH 8 0
BBX 8 9 0 0
BITMAP
0E
11
21
01
02
04
18
21
DE
ENDCHAR
STARTCHAR three
ENCODING 51
SWIDTH 253 0
DWIDTH 7 0
BBX 9 14 -2 -5
BITMAP
0700
0880
0080
0080
0300
0400
1A00
0100
0100
0100
0100
0200
8400
7800
ENDCHAR
STARTCHAR four
ENCODING 52
SWIDTH 363 0
DWIDTH 10 0
BBX 12 15 1 0
BITMAP
0010
0020
0040
01C0
0280
0D00
1100
2100
4200
4240
BF80
0400
0400
0C00
0800
ENDCHAR
STARTCHAR five
ENCODING 53
SWIDTH 250 0
DWIDTH 7 0
BBX 11 15 -2 -5
BITMAP
0040
03E0
0400
0400
0800
0800
0E00
0200
0100
0100
0100
0100
0200
8400
7800
ENDCHAR
STARTCHAR six
ENCODING 54
SWIDTH 296 0
DWIDTH 8 0
BBX 11 14 1 0
BITMAP
01C0
0620
0800
1000
2000
2000
5C00
6200
8200
8200
8200
8400
8800
7000
ENDCHAR
STARTCHAR seven
ENCODING 55
SWIDTH 326 0
DWIDTH 9 0
BBX 10 14 0 -5
BITMAP
1FC0
2040
4080
4080
0100
0200
0400
0400
0800
1000
2000
6000
4000
8000
ENDCHAR
STARTCHAR eight
ENCODING 56
SWIDTH 305 0
DWIDTH 9 0
BBX 9 13 1 0
BITMAP
0F80
1080
1080
1080
0900
0E00
3200
4300
8100
8100
8200
C200
7C00
ENDCHAR
STARTCHAR nine
ENCODING 57
SWIDTH 304 0
DWIDTH 9 0
BBX 10 13 -2 -4
BITMAP
0380
0C40
1040
1040
1040
10C0
1980
0E80
0100
0100
0200
8400
7800
ENDCHAR
STARTCHAR colon
ENCODING 58
SWIDTH 156 0
DWIDTH 4 0
BBX 4 7 0 0
BITMAP
10
20
00
00
00
40
80
ENDCHAR
STARTCHAR semicolon
ENCODING 59
SWIDTH 156 0
DWIDTH 4 0
BBX 4 9 0 -2
BITMAP
10
20
00
00
00
40
40
40
80
ENDCHAR
STARTCHAR less
ENCODING 60
SWIDTH 301 0
DWIDTH 8 0
BBX 7 6 1 1
BITMAP
02
1C
60
C0
30
08
ENDCHAR
STARTCHAR equal
ENCODING 61
SWIDTH 301 0
DWIDTH 8 0
BBX 7 4 1 2
BITMAP
7E
00
00
FC
ENDCHAR
STARTCHAR greater
ENCODING 62
SWIDTH 301 0
DWIDTH 8 0
BBX 7 5 1 1
BITMAP
70
0C
0E
30
C0
ENDCHAR
STARTCHAR question
ENCODING 63
SWIDTH 285 0
DWIDTH 8 0
BBX 9 15 2 0
BITMAP
0700
1980
2080
0080
0080
0100
0200
0400
1800
4000
4000
4000
0000
8000
8000
ENDCHAR
STARTCHAR at
ENCODING 64
SWIDTH 492 0
DWIDTH 14 0
BBX 12 13 1 -3
BITMAP
0780
1860
2020
4790
4890
9110
9310
9520
99C0
4000
4060
2040
1F80
ENDCHAR
STARTCHAR A
ENCODING 65
SWIDTH 996 0
DWIDTH 28 0
BBX 27 18 1 0
BITMAP
0000FE00
000301E0
00040060
000800C0
00080380
00100480
00000900
00001100
00002100
00004100
0007FE00
00008200
40010200
80020200
800C0200
C0100220
60E00340
3F000180
ENDCHAR
STARTCHAR B
ENCODING 66
SWIDTH 638 0
DWIDTH 18 0
BBX 17 19 1 0
BITMAP
000600
007E00
039100
042080
086080
104080
00C080
00C080
00CF00
018600
018100
018180
030080
020080
060080
CC0080
700100
1C0200
03FC00
ENDCHAR
STARTCHAR C
ENCODING 67
SWIDTH 557 0
DWIDTH 16 0
BBX 15 18 2 0
BITMAP
00FC
0702
1802
2002
2000
4000
4000
8000
8000
8000
8000
8000
8000
C008
4008
6010
3030
0FE0
ENDCHAR
STARTCHAR D
ENCODING 68
SWIDTH 799 0
DWIDTH 22 0
BBX 21 18 1 0
BITMAP
01F8C0
060700
080580
1004C0
100860
100820
001030
001010
003018
002008
002008
004008
004008
008008
008010
7F0030
83C060
FC3F80
ENDCHAR
STARTCHAR E
ENCODING 69
SWIDTH 494 0
DWIDTH 14 0
BBX 13 18 2 0
BITMAP
01F0
0618
0810
0800
0800
0600
0300
1C00
6000
4000
8000
8000
8000
8020
8020
C020
4040
3F80
ENDCHAR
STARTCHAR F
ENCODING 70
SWIDTH 626 0
DWIDTH 18 0
BBX 23 18 1 0
BITMAP
001FF8
006046
018080
010080
020100
000100
000100
000100
000200
007FC0
000200
000400
400400
800800
801000
802000
404000
3F8000
ENDCHAR
STARTCHAR G
ENCODING 71
SWIDTH 571 0
DWIDTH 16 0
BBX 20 23 -1 -5
BITMAP
0001E0
000630
001810
002020
004020
008000
008000
008000
010000
010000
010000
010100
010100
010200
008600
406A00
800400
800400
800800
801000
C02000
604000
3F8000
ENDCHAR
STARTCHAR H
ENCODING 72
SWIDTH 865 0
DWIDTH 24 0
BBX 31 19 1 0
BITMAP
0000000E
003F0032
00C18042
01020080
02040100
02040200
00040200
00080400
00080400
00080400
03F00800
0C1FE800
30101C00
40201800
80201000
80401000
80801200
41001400
7E001800
ENDCHAR
STARTCHAR I
ENCODING 73
SWIDTH 554 0
DWIDTH 16 0
BBX 19 18 1 0
BITMAP
0000E0
000380
000D00
001100
002100
004200
004200
008200
008400
008400
008400
008800
604C00
803000
802000
804000
C08000
7F0000
ENDCHAR
STARTCHAR J
ENCODING 74
SWIDTH 634 0
DWIDTH 18 0
BBX 23 23 0 -5
BITMAP
00000E
000078
000090
000110
000210
000420
000C20
000820
000840
000840
000840
000840
0104C0
0E0380
100300
600200
400400
800400
800800
801000
802000
40C000
3F0000
ENDCHAR
STARTCHAR K
ENCODING 75
SWIDTH 936 0
DWIDTH 26 0
BBX 27 18 1 0
BITMAP
001F80E0
0060C320
01810C20
02011000
02022000
04024000
04028000
04070000
04050000
02048000
00048000
20048000
40084000
80084000
80106000
C0202000
40401880
3F800F00
ENDCHAR
STARTCHAR L
ENCODING 76
SWIDTH 657 0
DWIDTH 18 0
BBX 19 18 1 0
BITMAP
0001E0
000620
000820
001020
001000
002000
002000
002000
004000
004000
004000
004000
008000
008000
790000
8F0180
858100
F87E00
ENDCHAR
STARTCHAR M
ENCODING 77
SWIDTH 1219 0
DWIDTH 34 0
BBX 35 18 1 0
BITMAP
0007F80020
00180F00C0
0020018180
0020010500
0040030900
0040061200
00000A1200
0000142400
0000144400
2000248400
4000490800
8000890800
80010A0800
C0020C0800
C0040C0800
4008180880
3070180D00
1F80100600
ENDCHAR
STARTCHAR N
ENCODING 78
SWIDTH 990 0
DWIDTH 28 0
BBX 35 18 1 0
BITMAP
003E0000C0
00C3C00320
0100C00220
0000600400
0000B00800
0000901000
0000881000
00010C2000
0001042000
0002062000
4002024000
4002024000
8004014000
8008018000
4010018000
6020008000
30C0008000
1F00008000
ENDCHAR
STARTCHAR O
ENCODING 79
SWIDTH 606 0
DWIDTH 17 0
BBX 16 18 2 0
BITMAP
01F8
060C
0806
1002
2001
4001
4001
8001
8001
8001
8002
8002
8004
C004
4008
6010
3060
1F80
ENDCHAR
STARTCHAR P
ENCODING 80
SWIDTH 783 0
DWIDTH 22 0
BBX 23 19 1 0
BITMAP
000030
0003F0
001C88
002084
004106
008102
008202
010202
000202
000E04
000404
200410
400BA0
801000
801000
802000
C04000
608000
3F0000
ENDCHAR
STARTCHAR Q
ENCODING 81
SWIDTH 563 0
DWIDTH 16 0
BBX 19 23 2 -5
BITMAP
01F000
060800
180400
100200
200200
200200
400200
400200
400200
400200
400400
400400
200800
1C1000
002000
004000
038000
FC0000
0C0000
030000
00C020
003040
000F80
ENDCHAR
STARTCHAR R
ENCODING 82
SWIDTH 854 0
DWIDTH 24 0
BBX 23 19 1 0
BITMAP
000060
0007E0
003918
00C20C
010204
020604
000404
000C08
000C08
000830
0019C0
001900
601100
803080
802080
804080
808040
C10062
7E003C
ENDCHAR
STARTCHAR S
ENCODING 83
SWIDTH 480 0
DWIDTH 13 0
BBX 14 18 1 0
BITMAP
0078
008C
0104
0108
0100
0180
0080
00C0
0060
0020
0030
0010
C010
8010
8010
C020
6040
3F80
ENDCHAR
STARTCHAR T
ENCODING 84
SWIDTH 577 0
DWIDTH 16 0
BBX 21 18 1 0
BITMAP
00FF80
0300F8
040048
080080
080100
100200
100200
100400
000400
000400
000800
000800
400800
801000
802000
804000
C08000
3F0000
ENDCHAR
STARTCHAR U
ENCODING 85
SWIDTH 752 0
DWIDTH 21 0
BBX 22 18 2 0
BITMAP
0FC00C
102008
604018
808010
810030
820020
820060
840040
8400C0
040140
080180
080280
080780
080500
080900
081120
0C21A0
07C1C0
ENDCHAR
STARTCHAR V
ENCODING 86
SWIDTH 661 0
DWIDTH 19 0
BBX 19 18 2 0
BITMAP
0F01C0
10C260
204020
404020
402020
802020
802040
002040
002080
002080
002100
002200
002400
004800
005000
006000
004000
008000
ENDCHAR
STARTCHAR W
ENCODING 87
SWIDTH 822 0
DWIDTH 23 0
BBX 24 18 2 0
BITMAP
1F0002
21808D
408081
80C101
804201
804602
804A02
004A02
005204
006208
00A210
00C210
00C220
008240
008280
010300
010200
010200
ENDCHAR
STARTCHAR X
ENCODING 88
SWIDTH 813 0
DWIDTH 23 0
BBX 21 18 2 0
BITMAP
00C038
0160C8
022108
002208
002400
002400
002800
003000
001000
003000
005000
005800
008800
C08800
810400
820610
CC0310
7001E0
ENDCHAR
STARTCHAR Y
ENCODING 89
SWIDTH 662 0
DWIDTH 19 0
BBX 25 22 0 -4
BITMAP
00380180
00480100
00880300
00080200
00100600
00100400
00100C00
00101800
00201800
00203000
00207000
0C20A000
30214000
403E4000
80008000
80010000
80020000
80020000
80040000
40180000
70600000
1F800000
ENDCHAR
STARTCHAR Z
ENCODING 90
SWIDTH 625 0
DWIDTH 18 0
BBX 19 18 1 0
BITMAP
007E20
0181C0
020080
020100
020200
000400
000800
001000
002000
004000
008000
010000
020000
040100
080100
100200
3C0400
C3F800
ENDCHAR
STARTCHAR bracketleft
ENCODING 91
SWIDTH 318 0
DWIDTH 9 0
BBX 10 20 2 -3
BITMAP
07C0
0400
0C00
0800
0800
0800
0800
1000
1000
1000
1000
2000
2000
2000
2000
4000
4000
4000
4000
F800
ENDCHAR
STARTCHAR backslash
ENCODING 92
SWIDTH 212 0
DWIDTH 6 0
BBX 4 19 1 -1
BITMAP
80
80
80
80
80
80
80
40
40
40
40
40
20
20
20
20
20
10
10
ENDCHAR
STARTCHAR bracketright
ENCODING 93
SWIDTH 339 0
DWIDTH 9 0
BBX 10 20 0 -3
BITMAP
03C0
0040
00C0
0080
0080
0080
0180
0100
0100
0100
0100
0200
0200
0200
0200
0400
0400
0400
0C00
F800
ENDCHAR
STARTCHAR asciicircum
ENCODING 94
SWIDTH 272 0
DWIDTH 8 0
BBX 6 6 1 5
BITMAP
18
18
28
28
44
84
ENDCHAR
STARTCHAR underscore
ENCODING 95
SWIDTH 356 0
DWIDTH 10 0
BBX 9 1 0 -2
BITMAP
FF80
ENDCHAR
STARTCHAR grave
ENCODING 96
SWIDTH 155 0
DWIDTH 4 0
BBX 3 2 1 9
BITMAP
C0
60
ENDCHAR
STARTCHAR a
ENCODING 97
SWIDTH 294 0
DWIDTH 8 0
BBX 7 7 1 0
BITMAP
1E
64
84
88
88
BA
CC
ENDCHAR
STARTCHAR b
ENCODING 98
SWIDTH 247 0
DWIDTH 7 0
BBX 14 21 1 0
BITMAP
003C
0044
0180
0200
0200
0400
0800
0800
1000
1000
1000
2000
2000
2000
4C00
7400
4400
8400
8800
9000
E000
ENDCHAR
STARTCHAR c
ENCODING 99
SWIDTH 203 0
DWIDTH 6 0
BBX 5 7 1 0
BITMAP
38
48
80
80
80
90
E0
ENDCHAR
STARTCHAR d
ENCODING 100
SWIDTH 285 0
DWIDTH 8 0
BBX 17 21 1 0
BITMAP
000380
000C80
001000
002000
004000
004000
008000
008000
010000
010000
020000
020000
020000
040000
3C0000
440000
C80000
880000
880000
BA0000
CC0000
ENDCHAR
STARTCHAR e
ENCODING 101
SWIDTH 206 0
DWIDTH 6 0
BBX 5 7 1 0
BITMAP
38
48
90
E0
80
90
E0
ENDCHAR
STARTCHAR f
ENCODING 102
SWIDTH 156 0
DWIDTH 4 0
BBX 23 28 -8 -7
BITMAP
00001C
000062
000084
000100
000100
000200
000200
000400
000400
000800
000800
000800
001000
001000
007E00
001000
002000
002000
002000
004000
004000
008000
008000
010000
020000
020000
840000
F80000
ENDCHAR
STARTCHAR g
ENCODING 103
SWIDTH 210 0
DWIDTH 6 0
BBX 9 15 -3 -7
BITMAP
0080
0300
0500
0900
0900
0A00
0E00
0200
0200
4300
8100
8100
8100
4200
3C00
ENDCHAR
STARTCHAR h
ENCODING 104
SWIDTH 292 0
DWIDTH 8 0
BBX 14 21 1 0
BITMAP
001C
0064
0084
0100
0200
0400
0400
0800
0800
1000
1000
1000
2000
2000
2E00
7400
6400
4800
4800
8A00
8C00
ENDCHAR
STARTCHAR i
ENCODING 105
SWIDTH 149 0
DWIDTH 4 0
BBX 5 11 1 0
BITMAP
08
10
20
00
20
40
C0
80
80
A0
C0
ENDCHAR
STARTCHAR j
ENCODING 106
SWIDTH 136 0
DWIDTH 4 0
BBX 15 18 -9 -7
BITMAP
0002
0004
0008
0000
0010
0070
0020
0020
0020
0040
0040
0040
0080
0080
0100
8200
8400
7800
ENDCHAR
STARTCHAR k
ENCODING 107
SWIDTH 259 0
DWIDTH 7 0
BBX 14 21 1 0
BITMAP
001C
0064
0184
0100
0200
0400
0800
0800
1000
1000
1000
2000
2000
2000
5C00
6400
4800
7000
A000
9000
9C00
ENDCHAR
STARTCHAR l
ENCODING 108
SWIDTH 134 0
DWIDTH 4 0
BBX 12 21 1 0
BITMAP
0030
00D0
0100
0200
0400
0400
0800
0800
1000
1000
2000
2000
2000
4000
4000
4000
8000
8000
8000
A000
C000
ENDCHAR
STARTCHAR m
ENCODING 109
SWIDTH 413 0
DWIDTH 12 0
BBX 11 7 1 0
BITMAP
6CC0
B740
2440
48C0
4880
9080
90E0
ENDCHAR
STARTCHAR n
ENCODING 110
SWIDTH 291 0
DWIDTH 8 0
BBX 7 7 1 0
BITMAP
66
BA
64
48
48
8A
8C
ENDCHAR
STARTCHAR o
ENCODING 111
SWIDTH 225 0
DWIDTH 6 0
BBX 5 7 1 0
BITMAP
38
48
88
88
90
90
E0
ENDCHAR
STARTCHAR p
ENCODING 112
SWIDTH 261 0
DWIDTH 7 0
BBX 8 15 -1 -7
BITMAP
08
3B
1D
11
11
22
26
38
40
40
40
40
80
80
E0
ENDCHAR
STARTCHAR q
ENCODING 113
SWIDTH 269 0
DWIDTH 8 0
BBX 7 14 1 -7
BITMAP
1E
64
44
88
88
B8
D0
10
20
20
20
20
20
30
ENDCHAR
STARTCHAR r
ENCODING 114
SWIDTH 195 0
DWIDTH 5 0
BBX 6 7 0 0
BITMAP
6C
B4
20
20
40
40
40
ENDCHAR
STARTCHAR s
ENCODING 115
SWIDTH 188 0
DWIDTH 5 0
BBX 6 7 -1 0
BITMAP
0C
14
10
18
08
C8
70
ENDCHAR
STARTCHAR t
ENCODING 116
SWIDTH 171 0
DWIDTH 5 0
BBX 5 11 1 0
BITMAP
10
20
20
40
F8
40
40
80
80
90
E0
ENDCHAR
STARTCHAR u
ENCODING 117
SWIDTH 299 0
DWIDTH 8 0
BBX 7 7 1 0
BITMAP
26
44
C8
88
98
AA
CC
ENDCHAR
STARTCHAR v
ENCODING 118
SWIDTH 271 0
DWIDTH 8 0
BBX 7 7 1 0
BITMAP
66
A2
22
44
48
90
E0
ENDCHAR
STARTCHAR w
ENCODING 119
SWIDTH 369 0
DWIDTH 10 0
BBX 10 7 0 0
BITMAP
64C0
A540
2440
3840
3880
2880
4700
ENDCHAR
STARTCHAR x
ENCODING 120
SWIDTH 263 0
DWIDTH 7 0
BBX 8 7 0 0
BITMAP
23
55
18
10
10
AA
CC
ENDCHAR
STARTCHAR y
ENCODING 121
SWIDTH 280 0
DWIDTH 8 0
BBX 13 14 -5 -7
BITMAP
0088
0108
0310
0230
0220
02E0
0320
0040
0040
8080
8080
8100
8200
7C00
ENDCHAR
STARTCHAR z
ENCODING 122
SWIDTH 238 0
DWIDTH 7 0
BBX 7 7 0 0
BITMAP
3E
48
10
30
20
44
F8
ENDCHAR
STARTCHAR braceleft
ENCODING 123
SWIDTH 291 0
DWIDTH 8 0
BBX 9 20 2 -3
BITMAP
0780
0800
0800
0800
0800
0800
1000
1000
2000
C000
2000
2000
2000
4000
4000
4000
8000
8000
C000
3000
ENDCHAR
STARTCHAR bar
ENCODING 124
SWIDTH 162 0
DWIDTH 5 0
BBX 1 25 2 -7
BITMAP
80
80
80
80
80
80
80
80
80
80
80
80
80
80
80
80
80
80
80
80
80
80
80
80
80
ENDCHAR
STARTCHAR braceright
ENCODING 125
SWIDTH 285 0
DWIDTH 8 0
BBX 9 20 0 -3
BITMAP
0700
0080
0080
0100
0100
0100
0200
0200
0200
0300
0200
0C00
0800
0800
0800
0800
1000
1000
2000
8000
ENDCHAR
STARTCHAR asciitilde
ENCODING 126
SWIDTH 383 0
DWIDTH 11 0
BBX 9 2 1 4
BITMAP
3880
CF00
ENDCHAR
STARTCHAR space.dup1
ENCODING 160
SWIDTH 150 0
DWIDTH 4 0
BBX 1 1 0 0
BITMAP
00
ENDCHAR
STARTCHAR exclamdown
ENCODING 161
SWIDTH 189 0
DWIDTH 5 0
BBX 7 15 -2 -8
BITMAP
02
02
00
00
04
08
08
10
10
10
20
20
60
40
C0
ENDCHAR
STARTCHAR cent
ENCODING 162
SWIDTH 194 0
DWIDTH 5 0
BBX 6 13 0 -2
BITMAP
04
08
1C
34
50
50
60
E0
58
60
80
80
80
ENDCHAR
STARTCHAR sterling
ENCODING 163
SWIDTH 344 0
DWIDTH 10 0
BBX 9 9 0 0
BITMAP
0380
0480
0800
0800
1E00
3000
1000
7100
DF80
ENDCHAR
STARTCHAR currency
ENCODING 164
SWIDTH 344 0
DWIDTH 10 0
BBX 9 9 1 0
BITMAP
4180
3E00
2200
4200
8200
8200
4400
7C00
8400
ENDCHAR
STARTCHAR yen
ENCODING 165
SWIDTH 309 0
DWIDTH 9 0
BBX 9 9 0 0
BITMAP
6180
1600
1800
1800
7C00
1000
7C00
A000
3000
ENDCHAR
STARTCHAR brokenbar
ENCODING 166
SWIDTH 162 0
DWIDTH 5 0
BBX 1 25 2 -7
BITMAP
80
80
80
80
80
80
80
80
80
00
00
00
00
00
00
00
80
80
80
80
80
80
80
80
80
ENDCHAR
STARTCHAR section
ENCODING 167
SWIDTH 395 0
DWIDTH 11 0
BBX 14 21 -1 -7
BITMAP
00FC
0384
0504
0504
0500
0500
0580
0580
0480
0680
02C0
0240
0240
0340
0140
8140
8140
8180
8280
C300
3800
ENDCHAR
STARTCHAR dieresis
ENCODING 168
SWIDTH 174 0
DWIDTH 5 0
BBX 3 2 1 9
BITMAP
A0
A0
ENDCHAR
STARTCHAR copyright
ENCODING 169
SWIDTH 331 0
DWIDTH 9 0
BBX 7 7 2 3
BITMAP
7C
BC
D2
C4
B4
88
30
ENDCHAR
STARTCHAR ordfeminine
ENCODING 170
SWIDTH 226 0
DWIDTH 6 0
BBX 4 4 2 5
BITMAP
70
A0
C0
A0
ENDCHAR
STARTCHAR guillemotleft
ENCODING 171
SWIDTH 289 0
DWIDTH 8 0
BBX 8 7 1 0
BITMAP
0B
14
68
90
F8
6C
24
ENDCHAR
STARTCHAR logicalnot
ENCODING 172
SWIDTH 265 0
DWIDTH 7 0
BBX 6 4 1 3
BITMAP
FC
04
08
08
ENDCHAR
STARTCHAR registered
ENCODING 174
SWIDTH 331 0
DWIDTH 9 0
BBX 7 7 2 3
BITMAP
78
B4
FA
E4
D4
8C
78
ENDCHAR
STARTCHAR degree
ENCODING 176
SWIDTH 104 0
DWIDTH 3 0
BBX 3 3 2 8
BITMAP
60
A0
C0
ENDCHAR
STARTCHAR plusminus
ENCODING 177
SWIDTH 301 0
DWIDTH 8 0
BBX 7 8 1 0
BITMAP
08
08
08
7E
10
10
00
F8
ENDCHAR
STARTCHAR twosuperior
ENCODING 178
SWIDTH 215 0
DWIDTH 6 0
BBX 4 5 1 4
BITMAP
30
D0
20
40
F0
ENDCHAR
STARTCHAR threesuperior
ENCODING 179
SWIDTH 190 0
DWIDTH 5 0
BBX 4 5 1 4
BITMAP
70
20
60
10
E0
ENDCHAR
STARTCHAR acute
ENCODING 180
SWIDTH 157 0
DWIDTH 4 0
BBX 3 3 1 8
BITMAP
60
C0
80
ENDCHAR
STARTCHAR mu
ENCODING 181
SWIDTH 324 0
DWIDTH 9 0
BBX 8 11 0 -4
BITMAP
09
11
12
22
2E
2A
73
40
80
80
80
ENDCHAR
STARTCHAR paragraph
ENCODING 182
SWIDTH 392 0
DWIDTH 11 0
BBX 14 16 -3 -7
BITMAP
003C
00E8
03E8
03D0
07D0
07D0
07E0
07A0
03A0
01C0
0140
0140
C280
8300
8600
7800
ENDCHAR
STARTCHAR periodcentered
ENCODING 183
SWIDTH 112 0
DWIDTH 3 0
BBX 1 2 1 3
BITMAP
80
80
ENDCHAR
STARTCHAR cedilla
ENCODING 184
SWIDTH 115 0
DWIDTH 3 0
BBX 2 3 1 -3
BITMAP
C0
80
80
ENDCHAR
STARTCHAR onesuperior
ENCODING 185
SWIDTH 174 0
DWIDTH 5 0
BBX 3 5 1 4
BITMAP
60
40
40
40
80
ENDCHAR
STARTCHAR ordmasculine
ENCODING 186
SWIDTH 178 0
DWIDTH 5 0
BBX 3 4 1 5
BITMAP
60
A0
A0
C0
ENDCHAR
STARTCHAR guillemotright
ENCODING 187
SWIDTH 276 0
DWIDTH 8 0
BBX 8 7 -1 0
BITMAP
24
36
1A
09
36
48
90
ENDCHAR
STARTCHAR onequarter
ENCODING 188
SWIDTH 435 0
DWIDTH 12 0
BBX 11 11 1 -1
BITMAP
0040
1080
3100
2200
2420
4440
49C0
1280
27C0
4100
8000
ENDCHAR
STARTCHAR onehalf
ENCODING 189
SWIDTH 434 0
DWIDTH 12 0
BBX 11 11 1 -1
BITMAP
0040
1880
3100
2200
24C0
4520
4840
1080
2100
47C0
8000
ENDCHAR
STARTCHAR threequarters
ENCODING 190
SWIDTH 476 0
DWIDTH 13 0
BBX 12 11 1 -1
BITMAP
0020
3040
1880
1100
2910
1260
E4C0
0960
12C0
2080
2000
ENDCHAR
STARTCHAR questiondown
ENCODING 191
SWIDTH 285 0
DWIDTH 8 0
BBX 9 14 -1 -7
BITMAP
0080
0100
0000
0200
0200
0400
0800
3000
4000
8000
8000
8400
C800
7000
ENDCHAR
STARTCHAR Agrave
ENCODING 192
SWIDTH 996 0
DWIDTH 28 0
BBX 27 21 1 0
BITMAP
00000180
00000040
00000020
0000FE00
000301E0
00040060
000800C0
00080380
00100480
00000900
00001100
00002100
00004100
0007FE00
00008200
40010200
80020200
800C0200
C0100220
60E00340
3F000180
ENDCHAR
STARTCHAR Aacute
ENCODING 193
SWIDTH 996 0
DWIDTH 28 0
BBX 28 21 1 0
BITMAP
00000030
00000040
00000080
0000FE00
000301E0
00040060
000800C0
00080380
00100480
00000900
00001100
00002100
00004100
0007FE00
00008200
40010200
80020200
800C0200
C0100220
60E00340
3F000180
ENDCHAR
STARTCHAR Acircumflex
ENCODING 194
SWIDTH 996 0
DWIDTH 28 0
BBX 29 21 1 0
BITMAP
00000020
000000D0
00000008
0000FE00
000301E0
00040060
000800C0
00080380
00100480
00000900
00001100
00002100
00004100
0007FE00
00008200
40010200
80020200
800C0200
C0100220
60E00340
3F000180
ENDCHAR
STARTCHAR Atilde
ENCODING 195
SWIDTH 996 0
DWIDTH 28 0
BBX 29 21 1 0
BITMAP
000000C8
00000128
00000030
0000FE00
000301E0
00040060
000800C0
00080380
00100480
00000900
00001100
00002100
00004100
0007FE00
00008200
40010200
80020200
800C0200
C0100220
60E00340
3F000180
ENDCHAR
STARTCHAR Adieresis
ENCODING 196
SWIDTH 996 0
DWIDTH 28 0
BBX 28 21 1 0
BITMAP
00000050
00000050
00000000
0000FE00
000301E0
00040060
000800C0
00080380
00100480
00000900
00001100
00002100
00004100
0007FE00
00008200
40010200
80020200
800C0200
C0100220
60E00340
3F000180
ENDCHAR
STARTCHAR Aring
ENCODING 197
SWIDTH 996 0
DWIDTH 28 0
BBX 28 22 1 0
BITMAP
00000020
00000050
00000050
00000020
0000FE00
000301E0
00040060
000800C0
00080380
00100480
00000900
00001100
00002100
00004100
0007FE00
00008200
40010200
80020200
800C0200
C0100220
60E00340
3F000180
ENDCHAR
STARTCHAR AE
ENCODING 198
SWIDTH 1271 0
DWIDTH 36 0
BBX 35 18 2 0
BITMAP
0001FC07C0
000603C820
000800D020
0010019020
0010029000
0010091800
0000110600
0000217800
0000428000
0000830000
0007FE0000
0001020000
8002020000
8004020080
8008020080
8030030080
E0C0010100
7F0000FE00
ENDCHAR
STARTCHAR Ccedilla
ENCODING 199
SWIDTH 557 0
DWIDTH 16 0
BBX 15 21 2 -3
BITMAP
00FC
0702
1802
2002
2000
4000
4000
8000
8000
8000
8000
8000
8008
C008
4008
2010
1830
07C0
0200
0200
0200
ENDCHAR
STARTCHAR Egrave
ENCODING 200
SWIDTH 463 0
DWIDTH 13 0
BBX 14 21 1 0
BITMAP
00C0
0030
0000
00F8
030C
0408
0400
0400
0300
0180
0E00
3000
4000
8000
8000
8000
8020
8020
C020
4040
3F80
ENDCHAR
STARTCHAR Eacute
ENCODING 201
SWIDTH 463 0
DWIDTH 13 0
BBX 14 21 1 0
BITMAP
0030
0040
0000
00F8
030C
0408
0400
0400
0300
0180
0E00
3000
4000
8000
8000
8000
8020
8020
C020
4040
3F80
ENDCHAR
STARTCHAR Ecircumflex
ENCODING 202
SWIDTH 463 0
DWIDTH 13 0
BBX 14 21 1 0
BITMAP
00E0
0110
0000
00F8
030C
0408
0400
0400
0300
0180
0E00
3000
4000
8000
8000
8000
8020
8020
C020
4040
3F80
ENDCHAR
STARTCHAR Edieresis
ENCODING 203
SWIDTH 463 0
DWIDTH 13 0
BBX 14 21 1 0
BITMAP
0050
0050
0000
00F8
030C
0408
0400
0400
0300
0180
0E00
3000
4000
8000
8000
8000
8020
8020
C020
4040
3F80
ENDCHAR
STARTCHAR Igrave
ENCODING 204
SWIDTH 514 0
DWIDTH 14 0
BBX 19 21 0 0
BITMAP
000700
000180
000000
0000E0
000380
000D00
001100
002100
004200
004200
008200
008400
008400
008400
008800
604C00
803000
802000
804000
C18000
7E0000
ENDCHAR
STARTCHAR Iacute
ENCODING 205
SWIDTH 514 0
DWIDTH 14 0
BBX 19 21 0 0
BITMAP
0000C0
000180
000200
0000E0
000380
000D00
001100
002100
004200
004200
008200
008400
008400
008400
008800
604C00
803000
802000
804000
C18000
7E0000
ENDCHAR
STARTCHAR Icircumflex
ENCODING 206
SWIDTH 514 0
DWIDTH 14 0
BBX 19 21 0 0
BITMAP
000180
000260
000000
0000E0
000380
000D00
001100
002100
004200
004200
008200
008400
008400
008400
008800
604C00
803000
802000
804000
C18000
7E0000
ENDCHAR
STARTCHAR Idieresis
ENCODING 207
SWIDTH 514 0
DWIDTH 14 0
BBX 19 21 0 0
BITMAP
000140
000140
000000
0000E0
000380
000D00
001100
002100
004200
004200
008200
008400
008400
008400
008800
604C00
803000
802000
804000
C18000
7E0000
ENDCHAR
STARTCHAR Eth
ENCODING 208
SWIDTH 800 0
DWIDTH 22 0
BBX 21 18 1 0
BITMAP
01F8C0
060700
080580
100840
100860
001020
001010
001010
002018
007E08
01A008
004008
004008
008008
008010
7F0020
838040
FC7F80
ENDCHAR
STARTCHAR Ntilde
ENCODING 209
SWIDTH 796 0
DWIDTH 22 0
BBX 35 21 -5 0
BITMAP
0000019000
000001D000
0000026000
003E0000C0
00C3C00320
0100C00420
0000600400
0000B00800
0000901000
0001081000
00010C2000
0001042000
0002064000
4002024000
4004024000
8004014000
8008018000
4010018000
4020008000
30C0008000
1F00008000
ENDCHAR
STARTCHAR Ograve
ENCODING 210
SWIDTH 608 0
DWIDTH 17 0
BBX 16 21 2 0
BITMAP
00C0
0020
0010
01F8
060C
0806
1002
2001
4001
4001
8001
8001
8001
8002
8002
8004
C004
4008
6010
3060
1F80
ENDCHAR
STARTCHAR Oacute
ENCODING 211
SWIDTH 608 0
DWIDTH 17 0
BBX 16 21 2 0
BITMAP
0030
0040
0000
01F8
060C
0806
1002
2001
4001
4001
8001
8001
8001
8002
8002
8004
C004
4008
6010
3060
1F80
ENDCHAR
STARTCHAR Ocircumflex
ENCODING 212
SWIDTH 608 0
DWIDTH 17 0
BBX 16 21 2 0
BITMAP
0020
00D8
0000
01F8
060C
0806
1002
2001
4001
4001
8001
8001
8001
8002
8002
8004
C004
4008
6010
3060
1F80
ENDCHAR
STARTCHAR Otilde
ENCODING 213
SWIDTH 608 0
DWIDTH 17 0
BBX 16 21 2 0
BITMAP
004C
00F8
0100
01F8
060C
0806
1002
2001
4001
4001
8001
8001
8001
8002
8002
8004
C004
4008
6010
3060
1F80
ENDCHAR
STARTCHAR Odieresis
ENCODING 214
SWIDTH 608 0
DWIDTH 17 0
BBX 16 21 2 0
BITMAP
0050
0050
0000
01F8
060C
0806
1002
2001
4001
4001
8001
8001
8001
8002
8002
8004
C004
4008
6010
3060
1F80
ENDCHAR
STARTCHAR multiply
ENCODING 215
SWIDTH 301 0
DWIDTH 8 0
BBX 7 6 1 1
BITMAP
22
24
18
30
48
88
ENDCHAR
STARTCHAR Oslash
ENCODING 216
SWIDTH 605 0
DWIDTH 17 0
BBX 16 19 2 -1
BITMAP
01F4
060C
0812
1012
2021
4041
4081
8081
8101
8201
8402
8402
8804
9004
5008
6010
3820
5FC0
8000
ENDCHAR
STARTCHAR Ugrave
ENCODING 217
SWIDTH 717 0
DWIDTH 20 0
BBX 22 20 1 0
BITMAP
000700
000080
0FC00C
102008
604018
808010
810030
820020
820060
840040
8400C0
040140
080180
080280
080500
080500
080900
081120
0C21A0
07C1C0
ENDCHAR
STARTCHAR Uacute
ENCODING 218
SWIDTH 717 0
DWIDTH 20 0
BBX 22 21 1 0
BITMAP
000040
000080
000300
0FC00C
102008
604018
808010
810030
820020
820060
840040
8400C0
040140
080180
080280
080500
080500
080900
081120
0C21A0
07C1C0
ENDCHAR
STARTCHAR Ucircumflex
ENCODING 219
SWIDTH 718 0
DWIDTH 20 0
BBX 22 21 1 0
BITMAP
000180
000240
000400
0FC00C
102008
604010
808010
810020
820020
820040
840040
8400C0
040180
080380
080280
080500
080900
080900
081120
0C61A0
0781C0
ENDCHAR
STARTCHAR Udieresis
ENCODING 220
SWIDTH 718 0
DWIDTH 20 0
BBX 22 21 1 0
BITMAP
000280
000280
000000
0FC00C
102008
604018
808010
810030
820020
820060
840040
8400C0
040140
080180
080280
080500
080500
080900
081120
0C21A0
07C1C0
ENDCHAR
STARTCHAR Yacute
ENCODING 221
SWIDTH 662 0
DWIDTH 19 0
BBX 25 25 0 -4
BITMAP
00001800
00002000
00004000
00380180
00480100
00880300
00080200
00100600
00100400
00100C00
00101800
00201800
00203000
00207000
0C20A000
30214000
403E4000
80008000
80010000
80020000
80020000
80040000
40180000
70600000
1F800000
ENDCHAR
STARTCHAR Thorn
ENCODING 222
SWIDTH 745 0
DWIDTH 21 0
BBX 20 19 2 0
BITMAP
000060
000080
000100
000100
000F80
003260
004220
008610
000610
000410
000C10
400C20
800840
803880
802700
802000
804000
408000
3F0000
ENDCHAR
STARTCHAR germandbls
ENCODING 223
SWIDTH 304 0
DWIDTH 9 0
BBX 24 27 -9 -7
BITMAP
00003E
000041
000181
000103
000202
000206
00040C
000410
000860
0008C0
000900
001200
001200
001200
001200
002200
002100
002100
002900
004F00
004000
008000
008000
010000
020000
840000
F00000
ENDCHAR
STARTCHAR agrave
ENCODING 224
SWIDTH 294 0
DWIDTH 8 0
BBX 7 11 1 0
BITMAP
18
04
02
00
1E
64
84
88
88
BA
CC
ENDCHAR
STARTCHAR aacute
ENCODING 225
SWIDTH 294 0
DWIDTH 8 0
BBX 7 11 1 0
BITMAP
02
04
08
00
1E
64
84
88
88
BA
CC
ENDCHAR
STARTCHAR acircumflex
ENCODING 226
SWIDTH 294 0
DWIDTH 8 0
BBX 7 12 1 0
BITMAP
04
1A
00
00
00
1E
64
84
88
88
BA
CC
ENDCHAR
STARTCHAR atilde
ENCODING 227
SWIDTH 294 0
DWIDTH 8 0
BBX 7 11 1 0
BITMAP
1A
2E
00
00
1E
64
84
88
88
BA
CC
ENDCHAR
STARTCHAR adieresis
ENCODING 228
SWIDTH 284 0
DWIDTH 8 0
BBX 7 11 1 0
BITMAP
14
1E
00
00
1E
64
84
88
88
BA
CC
ENDCHAR
STARTCHAR aring
ENCODING 229
SWIDTH 294 0
DWIDTH 8 0
BBX 7 11 1 0
BITMAP
0C
14
1C
00
1E
64
84
88
88
BA
CC
ENDCHAR
STARTCHAR ae
ENCODING 230
SWIDTH 363 0
DWIDTH 10 0
BBX 9 8 1 0
BITMAP
0400
3F80
4480
8900
8E00
8800
B900
CE00
ENDCHAR
STARTCHAR ccedilla
ENCODING 231
SWIDTH 203 0
DWIDTH 6 0
BBX 5 11 1 -4
BITMAP
38
48
80
80
80
90
E0
40
40
40
80
ENDCHAR
STARTCHAR egrave
ENCODING 232
SWIDTH 206 0
DWIDTH 6 0
BBX 5 11 1 0
BITMAP
30
08
00
00
38
48
90
E0
80
90
E0
ENDCHAR
STARTCHAR eacute
ENCODING 233
SWIDTH 206 0
DWIDTH 6 0
BBX 6 11 1 0
BITMAP
0C
18
10
00
38
48
90
E0
80
90
E0
ENDCHAR
STARTCHAR ecircumflex
ENCODING 234
SWIDTH 206 0
DWIDTH 6 0
BBX 6 12 1 0
BITMAP
10
2C
40
00
00
38
48
90
E0
80
90
E0
ENDCHAR
STARTCHAR edieresis
ENCODING 235
SWIDTH 206 0
DWIDTH 6 0
BBX 5 11 1 0
BITMAP
28
28
00
00
38
48
90
E0
80
90
E0
ENDCHAR
STARTCHAR igrave
ENCODING 236
SWIDTH 149 0
DWIDTH 4 0
BBX 4 11 1 0
BITMAP
60
10
00
00
20
40
C0
80
80
A0
C0
ENDCHAR
STARTCHAR iacute
ENCODING 237
SWIDTH 149 0
DWIDTH 4 0
BBX 5 11 1 0
BITMAP
08
10
20
00
20
40
C0
80
80
A0
C0
ENDCHAR
STARTCHAR icircumflex
ENCODING 238
SWIDTH 149 0
DWIDTH 4 0
BBX 5 12 1 0
BITMAP
30
58
00
00
00
20
40
C0
80
80
A0
C0
ENDCHAR
STARTCHAR idieresis
ENCODING 239
SWIDTH 149 0
DWIDTH 4 0
BBX 5 11 1 0
BITMAP
28
28
00
00
20
40
C0
80
80
A0
C0
ENDCHAR
STARTCHAR eth
ENCODING 240
SWIDTH 234 0
DWIDTH 7 0
BBX 5 19 1 0
BITMAP
80
80
80
80
40
78
20
D0
10
10
08
08
78
48
88
88
90
90
E0
ENDCHAR
STARTCHAR ntilde
ENCODING 241
SWIDTH 291 0
DWIDTH 8 0
BBX 7 11 1 0
BITMAP
1A
2E
00
00
66
BA
64
48
48
8A
8C
ENDCHAR
STARTCHAR ograve
ENCODING 242
SWIDTH 225 0
DWIDTH 6 0
BBX 6 11 1 0
BITMAP
18
08
04
00
38
48
88
88
90
90
E0
ENDCHAR
STARTCHAR oacute
ENCODING 243
SWIDTH 225 0
DWIDTH 6 0
BBX 6 11 1 0
BITMAP
0C
18
10
00
38
48
88
88
90
90
E0
ENDCHAR
STARTCHAR ocircumflex
ENCODING 244
SWIDTH 225 0
DWIDTH 6 0
BBX 7 12 1 0
BITMAP
08
34
02
00
00
38
48
88
88
90
90
E0
ENDCHAR
STARTCHAR otilde
ENCODING 245
SWIDTH 225 0
DWIDTH 6 0
BBX 7 11 1 0
BITMAP
36
4C
00
00
38
48
88
88
90
90
E0
ENDCHAR
STARTCHAR odieresis
ENCODING 246
SWIDTH 225 0
DWIDTH 6 0
BBX 5 11 1 0
BITMAP
28
28
00
00
38
48
88
88
90
90
E0
ENDCHAR
STARTCHAR divide
ENCODING 247
SWIDTH 301 0
DWIDTH 8 0
BBX 6 5 2 1
BITMAP
10
00
FC
00
60
ENDCHAR
STARTCHAR oslash
ENCODING 248
SWIDTH 225 0
DWIDTH 6 0
BBX 7 9 0 -1
BITMAP
02
1C
24
5C
64
68
48
70
80
ENDCHAR
STARTCHAR ugrave
ENCODING 249
SWIDTH 299 0
DWIDTH 8 0
BBX 7 11 1 0
BITMAP
0C
04
02
00
26
44
C8
88
98
AA
CC
ENDCHAR
STARTCHAR uacute
ENCODING 250
SWIDTH 299 0
DWIDTH 8 0
BBX 7 11 1 0
BITMAP
02
06
08
00
26
44
C8
88
98
AA
CC
ENDCHAR
STARTCHAR ucircumflex
ENCODING 251
SWIDTH 299 0
DWIDTH 8 0
BBX 7 12 1 0
BITMAP
04
1A
00
00
00
26
44
C8
88
98
AA
CC
ENDCHAR
STARTCHAR udieresis
ENCODING 252
SWIDTH 299 0
DWIDTH 8 0
BBX 7 11 1 0
BITMAP
0A
14
00
00
26
44
C8
88
98
AA
CC
ENDCHAR
STARTCHAR yacute
ENCODING 253
SWIDTH 280 0
DWIDTH 8 0
BBX 13 18 -5 -7
BITMAP
0008
0018
0020
0000
0088
0108
0310
0230
0220
02E0
0320
0040
0040
8080
8080
8100
8200
7C00
ENDCHAR
STARTCHAR thorn
ENCODING 254
SWIDTH 261 0
DWIDTH 7 0
BBX 8 21 -1 -7
BITMAP
01
07
02
02
04
04
04
0F
09
11
11
21
22
3C
40
40
40
40
80
80
E0
ENDCHAR
STARTCHAR ydieresis
ENCODING 255
SWIDTH 280 0
DWIDTH 8 0
BBX 13 18 -5 -7
BITMAP
0078
0050
0000
0000
0088
0108
0310
0230
0220
02E0
0320
0040
0040
8080
8080
8100
8200
7C00
ENDCHAR
STARTCHAR dotlessi
ENCODING 305
SWIDTH 149 0
DWIDTH 4 0
BBX 3 7 1 0
BITMAP
20
40
C0
80
80
A0
C0
ENDCHAR
STARTCHAR Lslash
ENCODING 321
SWIDTH 657 0
DWIDTH 18 0
BBX 19 18 1 0
BITMAP
0001E0
000620
000820
001020
001000
002000
002000
002400
00F800
074000
004000
004000
008000
008000
790000
870180
858100
F87E00
ENDCHAR
STARTCHAR lslash
ENCODING 322
SWIDTH 134 0
DWIDTH 4 0
BBX 12 21 1 0
BITMAP
0030
00D0
0100
0200
0400
0400
0800
0800
1600
3800
6000
2000
2000
4000
4000
4000
8000
8000
8000
A000
C000
ENDCHAR
STARTCHAR OE
ENCODING 338
SWIDTH 827 0
DWIDTH 23 0
BBX 23 18 2 0
BITMAP
00F87C
030D86
0C0204
100200
200200
400180
4000C0
800700
801800
802000
804000
804000
804000
C04010
404010
606010
302020
1FDFC0
ENDCHAR
STARTCHAR oe
ENCODING 339
SWIDTH 345 0
DWIDTH 10 0
BBX 9 7 1 0
BITMAP
3B80
4C80
8900
8E00
8800
9900
EE00
ENDCHAR
STARTCHAR Scaron
ENCODING 352
SWIDTH 480 0
DWIDTH 13 0
BBX 14 21 1 0
BITMAP
006C
0010
0000
0078
008C
0104
0108
0100
0180
0080
00C0
0060
0020
0030
0010
C010
8010
8010
C020
6040
3F80
ENDCHAR
STARTCHAR scaron
ENCODING 353
SWIDTH 188 0
DWIDTH 5 0
BBX 8 12 -1 0
BITMAP
09
06
00
00
00
0C
14
10
18
08
C8
70
ENDCHAR
STARTCHAR Ydieresis
ENCODING 376
SWIDTH 662 0
DWIDTH 19 0
BBX 25 25 0 -4
BITMAP
0000A000
0000A000
00000000
00380180
00480100
00880300
00080200
00100600
00100400
00100C00
00101800
00201800
00203000
00207000
0C20A000
30214000
403E4000
80008000
80010000
80020000
80020000
80040000
40180000
70600000
1F800000
ENDCHAR
STARTCHAR Zcaron
ENCODING 381
SWIDTH 625 0
DWIDTH 18 0
BBX 19 21 1 0
BITMAP
000900
000600
000000
007E20
0181C0
020080
020100
020200
000400
000800
001000
002000
004000
008000
010000
020000
040100
080100
100200
3C0400
C3F800
ENDCHAR
STARTCHAR zcaron
ENCODING 382
SWIDTH 248 0
DWIDTH 7 0
BBX 8 12 0 0
BITMAP
0B
04
00
00
00
3E
48
10
20
20
44
F8
ENDCHAR
STARTCHAR florin
ENCODING 402
SWIDTH 214 0
DWIDTH 6 0
BBX 9 12 -2 -3
BITMAP
0180
0680
0400
0400
0800
1F00
0800
0800
1000
1000
2000
C000
ENDCHAR
STARTCHAR circumflex
ENCODING 710
SWIDTH 196 0
DWIDTH 5 0
BBX 4 2 1 10
BITMAP
40
B0
ENDCHAR
STARTCHAR caron
ENCODING 711
SWIDTH 196 0
DWIDTH 5 0
BBX 4 2 1 10
BITMAP
90
60
ENDCHAR
STARTCHAR breve
ENCODING 728
SWIDTH 198 0
DWIDTH 6 0
BBX 4 3 1 9
BITMAP
90
90
E0
ENDCHAR
STARTCHAR dotaccent
ENCODING 729
SWIDTH 89 0
DWIDTH 3 0
BBX 1 2 1 9
BITMAP
80
80
ENDCHAR
STARTCHAR ring
ENCODING 730
SWIDTH 117 0
DWIDTH 3 0
BBX 3 3 0 8
BITMAP
60
A0
C0
ENDCHAR
STARTCHAR ogonek
ENCODING 731
SWIDTH 124 0
DWIDTH 3 0
BBX 2 3 1 -3
BITMAP
C0
80
C0
ENDCHAR
STARTCHAR tilde
ENCODING 732
SWIDTH 222 0
DWIDTH 6 0
BBX 5 2 1 9
BITMAP
D8
B0
ENDCHAR
STARTCHAR hungarumlaut
ENCODING 733
SWIDTH 253 0
DWIDTH 7 0
BBX 7 3 0 8
BITMAP
24
4E
90
ENDCHAR
STARTCHAR mu.dup2
ENCODING 956
SWIDTH 324 0
DWIDTH 9 0
BBX 8 11 0 -4
BITMAP
09
11
12
22
2E
2A
73
40
80
80
80
ENDCHAR
STARTCHAR endash
ENCODING 8211
SWIDTH 500 0
DWIDTH 14 0
BBX 12 1 1 4
BITMAP
FFF0
ENDCHAR
STARTCHAR emdash
ENCODING 8212
SWIDTH 1000 0
DWIDTH 28 0
BBX 26 1 1 4
BITMAP
FFFFFFC0
ENDCHAR
STARTCHAR quoteleft
ENCODING 8216
SWIDTH 87 0
DWIDTH 2 0
BBX 2 5 2 7
BITMAP
40
80
80
80
80
ENDCHAR
STARTCHAR quoteright
ENCODING 8217
SWIDTH 87 0
DWIDTH 2 0
BBX 2 5 2 7
BITMAP
40
40
40
80
80
ENDCHAR
STARTCHAR quotesinglbase
ENCODING 8218
SWIDTH 112 0
DWIDTH 3 0
BBX 2 4 0 -2
BITMAP
40
40
40
80
ENDCHAR
STARTCHAR quotedblleft
ENCODING 8220
SWIDTH 167 0
DWIDTH 4 0
BBX 4 5 2 7
BITMAP
50
A0
A0
A0
A0
ENDCHAR
STARTCHAR quotedblright
ENCODING 8221
SWIDTH 167 0
DWIDTH 5 0
BBX 4 5 2 7
BITMAP
50
50
50
A0
A0
ENDCHAR
STARTCHAR quotedblbase
ENCODING 8222
SWIDTH 192 0
DWIDTH 5 0
BBX 5 4 0 -2
BITMAP
48
48
48
90
ENDCHAR
STARTCHAR dagger
ENCODING 8224
SWIDTH 185 0
DWIDTH 5 0
BBX 6 17 1 -2
BITMAP
08
10
10
10
20
7C
A0
20
40
40
40
40
80
80
80
80
80
ENDCHAR
STARTCHAR daggerdbl
ENCODING 8225
SWIDTH 185 0
DWIDTH 5 0
BBX 8 18 -1 -3
BITMAP
02
04
04
04
08
3F
08
08
10
10
10
10
FE
20
20
20
40
40
ENDCHAR
STARTCHAR bullet
ENCODING 8226
SWIDTH 207 0
DWIDTH 6 0
BBX 3 3 2 3
BITMAP
60
E0
C0
ENDCHAR
STARTCHAR ellipsis
ENCODING 8230
SWIDTH 376 0
DWIDTH 11 0
BBX 9 1 1 0
BITMAP
8980
ENDCHAR
STARTCHAR perthousand
ENCODING 8240
SWIDTH 571 0
DWIDTH 16 0
BBX 14 13 1 -2
BITMAP
0080
0080
7100
9200
9400
A400
AB9C
54A4
24A4
24A4
4738
8000
8000
ENDCHAR
STARTCHAR guilsinglleft
ENCODING 8249
SWIDTH 189 0
DWIDTH 5 0
BBX 5 7 0 0
BITMAP
08
10
60
80
40
20
20
ENDCHAR
STARTCHAR guilsinglright
ENCODING 8250
SWIDTH 176 0
DWIDTH 5 0
BBX 5 7 -1 0
BITMAP
60
20
10
18
20
40
80
ENDCHAR
STARTCHAR fraction
ENCODING 8260
SWIDTH 220 0
DWIDTH 6 0
BBX 10 11 -1 -1
BITMAP
0040
0080
0100
0200
0600
0400
0800
1000
2000
4000
8000
ENDCHAR
STARTCHAR Euro
ENCODING 8364
SWIDTH 360 0
DWIDTH 10 0
BBX 9 9 0 0
BITMAP
0F80
1080
2000
7C00
2000
7C00
A000
2200
1E00
ENDCHAR
STARTCHAR trademark
ENCODING 8482
SWIDTH 389 0
DWIDTH 11 0
BBX 9 4 1 5
BITMAP
F580
4F00
9700
9580
ENDCHAR
STARTCHAR minus
ENCODING 8722
SWIDTH 301 0
DWIDTH 8 0
BBX 7 1 1 4
BITMAP
FE
ENDCHAR
STARTCHAR fi
ENCODING 64257
SWIDTH 297 0
DWIDTH 8 0
BBX 23 28 -9 -7
BITMAP
00000E
000032
000042
000080
000080
000100
000100
000200
000200
000400
000420
000440
000880
000800
003F80
005100
001100
003200
002200
002280
004300
004000
008000
008000
010000
020000
840000
780000
ENDCHAR
STARTCHAR fl
ENCODING 64258
SWIDTH 290 0
DWIDTH 8 0
BBX 25 28 -8 -7
BITMAP
00000180
00007E80
00008800
00011000
00012000
00022000
00024000
00044000
00048000
00088000
00090000
00190000
00120000
00120000
007E0000
00220000
00240000
00240000
00440000
00450000
00860000
00800000
01800000
01000000
02000000
04000000
88000000
F0000000
ENDCHAR
STARTCHAR .notdef
ENCODING -1
SWIDTH 150 0
DWIDTH 4 0
BBX 1 1 0 0
BITMAP
00
ENDCHAR
STARTCHAR .null
ENCODING -1
SWIDTH 0 0
DWIDTH 0 0
BBX 1 1 0 0
BITMAP
00
ENDCHAR
STARTCHAR nonmarkingreturn
ENCODING -1
SWIDTH 150 0
DWIDTH 4 0
BBX 1 1 0 0
BITMAP
00
ENDCHAR
ENDFONT
